<mxfile host="app.diagrams.net" modified="2021-03-01T13:02:36.136Z" agent="5.0 (Macintosh; Intel Mac OS X 11_1_0) AppleWebKit/537.36 (KHTML, like Gecko) Chrome/88.0.4324.150 Safari/537.36" etag="615pkiZ9-88IF9W9YIgs" version="14.2.9" type="github">
  <diagram name="Page-1" id="74e2e168-ea6b-b213-b513-2b3c1d86103e">
    <mxGraphModel dx="1393" dy="905" grid="1" gridSize="10" guides="1" tooltips="1" connect="1" arrows="1" fold="1" page="1" pageScale="1" pageWidth="1100" pageHeight="850" background="#ffffff" math="0" shadow="0">
      <root>
        <mxCell id="0" />
        <mxCell id="1" parent="0" />
        <mxCell id="ig5wSbgK44ufMwJsr3-6-1" value="boss" style="rounded=0;whiteSpace=wrap;html=1;" parent="1" vertex="1">
          <mxGeometry x="110" y="50" width="140" height="30" as="geometry" />
        </mxCell>
        <mxCell id="ig5wSbgK44ufMwJsr3-6-3" value="" style="rounded=0;whiteSpace=wrap;html=1;" parent="1" vertex="1">
          <mxGeometry x="175" y="80" width="10" height="730" as="geometry" />
        </mxCell>
        <mxCell id="ig5wSbgK44ufMwJsr3-6-4" value="mojito" style="rounded=0;whiteSpace=wrap;html=1;" parent="1" vertex="1">
          <mxGeometry x="340" y="50" width="140" height="30" as="geometry" />
        </mxCell>
        <mxCell id="ig5wSbgK44ufMwJsr3-6-5" value="" style="rounded=0;whiteSpace=wrap;html=1;" parent="1" vertex="1">
          <mxGeometry x="405" y="80" width="10" height="730" as="geometry" />
        </mxCell>
        <mxCell id="ig5wSbgK44ufMwJsr3-6-6" value="oss" style="rounded=0;whiteSpace=wrap;html=1;" parent="1" vertex="1">
          <mxGeometry x="675" y="50" width="140" height="30" as="geometry" />
        </mxCell>
        <mxCell id="ig5wSbgK44ufMwJsr3-6-7" value="" style="rounded=0;whiteSpace=wrap;html=1;" parent="1" vertex="1">
          <mxGeometry x="740" y="80" width="10" height="730" as="geometry" />
        </mxCell>
        <mxCell id="ig5wSbgK44ufMwJsr3-6-8" value="数据库" style="rounded=0;whiteSpace=wrap;html=1;" parent="1" vertex="1">
          <mxGeometry x="905" y="50" width="140" height="30" as="geometry" />
        </mxCell>
        <mxCell id="ig5wSbgK44ufMwJsr3-6-9" value="" style="rounded=0;whiteSpace=wrap;html=1;" parent="1" vertex="1">
          <mxGeometry x="970" y="80" width="10" height="730" as="geometry" />
        </mxCell>
        <mxCell id="ig5wSbgK44ufMwJsr3-6-10" value="xjob" style="rounded=0;whiteSpace=wrap;html=1;" parent="1" vertex="1">
          <mxGeometry x="110" y="870" width="140" height="30" as="geometry" />
        </mxCell>
        <mxCell id="ig5wSbgK44ufMwJsr3-6-11" value="" style="rounded=0;whiteSpace=wrap;html=1;" parent="1" vertex="1">
          <mxGeometry x="175" y="900" width="10" height="730" as="geometry" />
        </mxCell>
        <mxCell id="ig5wSbgK44ufMwJsr3-6-13" value="" style="endArrow=classic;html=1;exitX=0.8;exitY=0.052;exitDx=0;exitDy=0;exitPerimeter=0;entryX=0.1;entryY=0.051;entryDx=0;entryDy=0;entryPerimeter=0;" parent="1" source="ig5wSbgK44ufMwJsr3-6-3" target="ig5wSbgK44ufMwJsr3-6-5" edge="1">
          <mxGeometry width="50" height="50" relative="1" as="geometry">
            <mxPoint x="770" y="500" as="sourcePoint" />
            <mxPoint x="820" y="450" as="targetPoint" />
          </mxGeometry>
        </mxCell>
        <mxCell id="ig5wSbgK44ufMwJsr3-6-14" value="batch/operate/upload" style="text;html=1;align=center;verticalAlign=middle;resizable=0;points=[];autosize=1;" parent="1" vertex="1">
          <mxGeometry x="225" y="90" width="130" height="20" as="geometry" />
        </mxCell>
        <mxCell id="ig5wSbgK44ufMwJsr3-6-15" value="" style="endArrow=classic;html=1;exitX=0.8;exitY=0.052;exitDx=0;exitDy=0;exitPerimeter=0;entryX=0.1;entryY=0.051;entryDx=0;entryDy=0;entryPerimeter=0;" parent="1" edge="1">
          <mxGeometry width="50" height="50" relative="1" as="geometry">
            <mxPoint x="184" y="171.96000000000004" as="sourcePoint" />
            <mxPoint x="407" y="171.23000000000002" as="targetPoint" />
          </mxGeometry>
        </mxCell>
        <mxCell id="ig5wSbgK44ufMwJsr3-6-16" value="batch/operate/validateClazz" style="text;html=1;align=center;verticalAlign=middle;resizable=0;points=[];autosize=1;" parent="1" vertex="1">
          <mxGeometry x="211" y="144" width="160" height="20" as="geometry" />
        </mxCell>
        <mxCell id="ig5wSbgK44ufMwJsr3-6-20" value="" style="endArrow=classic;html=1;exitX=0.8;exitY=0.052;exitDx=0;exitDy=0;exitPerimeter=0;entryX=0.1;entryY=0.051;entryDx=0;entryDy=0;entryPerimeter=0;" parent="1" edge="1">
          <mxGeometry width="50" height="50" relative="1" as="geometry">
            <mxPoint x="183" y="232.96000000000004" as="sourcePoint" />
            <mxPoint x="406" y="232.23000000000002" as="targetPoint" />
          </mxGeometry>
        </mxCell>
        <mxCell id="ig5wSbgK44ufMwJsr3-6-21" value="batch/operate/uploadChangeClazzFile" style="text;html=1;align=center;verticalAlign=middle;resizable=0;points=[];autosize=1;" parent="1" vertex="1">
          <mxGeometry x="180" y="205" width="220" height="20" as="geometry" />
        </mxCell>
        <mxCell id="ig5wSbgK44ufMwJsr3-6-22" value="" style="endArrow=classic;html=1;exitX=0.8;exitY=0.052;exitDx=0;exitDy=0;exitPerimeter=0;entryX=-0.4;entryY=0.274;entryDx=0;entryDy=0;entryPerimeter=0;" parent="1" target="ig5wSbgK44ufMwJsr3-6-7" edge="1">
          <mxGeometry width="50" height="50" relative="1" as="geometry">
            <mxPoint x="419" y="279.96000000000004" as="sourcePoint" />
            <mxPoint x="600" y="320" as="targetPoint" />
          </mxGeometry>
        </mxCell>
        <mxCell id="ig5wSbgK44ufMwJsr3-6-23" value="http://internal-storage.genshuixue.com/webupload.php" style="text;html=1;align=center;verticalAlign=middle;resizable=0;points=[];autosize=1;" parent="1" vertex="1">
          <mxGeometry x="429" y="252" width="300" height="20" as="geometry" />
        </mxCell>
        <mxCell id="ig5wSbgK44ufMwJsr3-6-24" value="" style="shape=curlyBracket;whiteSpace=wrap;html=1;rounded=1;" parent="1" vertex="1">
          <mxGeometry x="150" y="170" width="20" height="66" as="geometry" />
        </mxCell>
        <mxCell id="ig5wSbgK44ufMwJsr3-6-25" value="批量调课调班" style="text;html=1;strokeColor=none;fillColor=none;align=center;verticalAlign=middle;whiteSpace=wrap;rounded=0;" parent="1" vertex="1">
          <mxGeometry x="110" y="193" width="40" height="20" as="geometry" />
        </mxCell>
        <mxCell id="ig5wSbgK44ufMwJsr3-6-27" value="批量操作" style="text;html=1;strokeColor=none;fillColor=none;align=center;verticalAlign=middle;whiteSpace=wrap;rounded=0;" parent="1" vertex="1">
          <mxGeometry x="117" y="110" width="53" height="23" as="geometry" />
        </mxCell>
        <mxCell id="ig5wSbgK44ufMwJsr3-6-28" value="" style="endArrow=classic;html=1;exitX=0.8;exitY=0.052;exitDx=0;exitDy=0;exitPerimeter=0;entryX=-0.3;entryY=0.379;entryDx=0;entryDy=0;entryPerimeter=0;" parent="1" target="ig5wSbgK44ufMwJsr3-6-9" edge="1">
          <mxGeometry width="50" height="50" relative="1" as="geometry">
            <mxPoint x="420.5" y="357.96000000000004" as="sourcePoint" />
            <mxPoint x="737.5" y="358.02" as="targetPoint" />
          </mxGeometry>
        </mxCell>
        <mxCell id="ig5wSbgK44ufMwJsr3-6-29" value="insertBatchOperateUpload" style="text;html=1;align=center;verticalAlign=middle;resizable=0;points=[];autosize=1;" parent="1" vertex="1">
          <mxGeometry x="500.5" y="330" width="160" height="20" as="geometry" />
        </mxCell>
        <mxCell id="ig5wSbgK44ufMwJsr3-6-31" value="" style="endArrow=classic;html=1;exitX=0.8;exitY=0.052;exitDx=0;exitDy=0;exitPerimeter=0;entryX=-0.3;entryY=0.379;entryDx=0;entryDy=0;entryPerimeter=0;" parent="1" edge="1">
          <mxGeometry width="50" height="50" relative="1" as="geometry">
            <mxPoint x="423.5" y="424.96000000000004" as="sourcePoint" />
            <mxPoint x="970" y="423.6700000000001" as="targetPoint" />
          </mxGeometry>
        </mxCell>
        <mxCell id="ig5wSbgK44ufMwJsr3-6-32" value="insertBatchOperateUpload" style="text;html=1;align=center;verticalAlign=middle;resizable=0;points=[];autosize=1;" parent="1" vertex="1">
          <mxGeometry x="503.5" y="397" width="160" height="20" as="geometry" />
        </mxCell>
        <mxCell id="ig5wSbgK44ufMwJsr3-6-33" value="" style="endArrow=classic;html=1;exitX=0.8;exitY=0.052;exitDx=0;exitDy=0;exitPerimeter=0;entryX=-0.4;entryY=0.274;entryDx=0;entryDy=0;entryPerimeter=0;" parent="1" edge="1">
          <mxGeometry width="50" height="50" relative="1" as="geometry">
            <mxPoint x="422" y="477.96000000000004" as="sourcePoint" />
            <mxPoint x="739" y="478.02" as="targetPoint" />
          </mxGeometry>
        </mxCell>
        <mxCell id="ig5wSbgK44ufMwJsr3-6-34" value="&amp;nbsp;batchChangeClazzDao.insert，idx=0" style="text;html=1;align=center;verticalAlign=middle;resizable=0;points=[];autosize=1;" parent="1" vertex="1">
          <mxGeometry x="472" y="450" width="220" height="20" as="geometry" />
        </mxCell>
        <mxCell id="ig5wSbgK44ufMwJsr3-6-35" value="" style="shape=curlyBracket;whiteSpace=wrap;html=1;rounded=1;" parent="1" vertex="1">
          <mxGeometry x="380" y="417" width="20" height="66" as="geometry" />
        </mxCell>
        <mxCell id="ig5wSbgK44ufMwJsr3-6-36" value="批量调课调班" style="text;html=1;strokeColor=none;fillColor=none;align=center;verticalAlign=middle;whiteSpace=wrap;rounded=0;" parent="1" vertex="1">
          <mxGeometry x="340" y="440" width="40" height="20" as="geometry" />
        </mxCell>
        <mxCell id="ig5wSbgK44ufMwJsr3-6-41" value="BatchXXHandler" style="rounded=0;whiteSpace=wrap;html=1;" parent="1" vertex="1">
          <mxGeometry x="363.5" y="870" width="140" height="30" as="geometry" />
        </mxCell>
        <mxCell id="ig5wSbgK44ufMwJsr3-6-42" value="" style="rounded=0;whiteSpace=wrap;html=1;" parent="1" vertex="1">
          <mxGeometry x="428.5" y="900" width="10" height="730" as="geometry" />
        </mxCell>
        <mxCell id="ig5wSbgK44ufMwJsr3-6-43" value="BatchOperateService" style="rounded=0;whiteSpace=wrap;html=1;" parent="1" vertex="1">
          <mxGeometry x="675" y="870" width="140" height="30" as="geometry" />
        </mxCell>
        <mxCell id="ig5wSbgK44ufMwJsr3-6-44" value="" style="rounded=0;whiteSpace=wrap;html=1;" parent="1" vertex="1">
          <mxGeometry x="740" y="900" width="10" height="730" as="geometry" />
        </mxCell>
        <mxCell id="ig5wSbgK44ufMwJsr3-6-45" value="BatchHandlerService" style="rounded=0;whiteSpace=wrap;html=1;" parent="1" vertex="1">
          <mxGeometry x="1130" y="870" width="140" height="30" as="geometry" />
        </mxCell>
        <mxCell id="ig5wSbgK44ufMwJsr3-6-46" value="" style="rounded=0;whiteSpace=wrap;html=1;" parent="1" vertex="1">
          <mxGeometry x="1185" y="900" width="10" height="730" as="geometry" />
        </mxCell>
        <mxCell id="ig5wSbgK44ufMwJsr3-6-47" value="BatchOperateUploadDao" style="rounded=0;whiteSpace=wrap;html=1;" parent="1" vertex="1">
          <mxGeometry x="1410" y="870" width="140" height="30" as="geometry" />
        </mxCell>
        <mxCell id="ig5wSbgK44ufMwJsr3-6-48" value="" style="rounded=0;whiteSpace=wrap;html=1;" parent="1" vertex="1">
          <mxGeometry x="1475" y="900" width="10" height="730" as="geometry" />
        </mxCell>
        <mxCell id="ig5wSbgK44ufMwJsr3-6-51" value="" style="endArrow=classic;html=1;exitX=0.8;exitY=0.052;exitDx=0;exitDy=0;exitPerimeter=0;" parent="1" edge="1">
          <mxGeometry width="50" height="50" relative="1" as="geometry">
            <mxPoint x="185" y="967.96" as="sourcePoint" />
            <mxPoint x="430" y="968" as="targetPoint" />
          </mxGeometry>
        </mxCell>
        <mxCell id="ig5wSbgK44ufMwJsr3-6-52" value="execute（）" style="text;html=1;align=center;verticalAlign=middle;resizable=0;points=[];autosize=1;" parent="1" vertex="1">
          <mxGeometry x="275" y="940" width="80" height="20" as="geometry" />
        </mxCell>
        <mxCell id="ig5wSbgK44ufMwJsr3-6-53" value="分片广播" style="text;html=1;align=center;verticalAlign=middle;resizable=0;points=[];autosize=1;" parent="1" vertex="1">
          <mxGeometry x="120" y="930" width="60" height="20" as="geometry" />
        </mxCell>
        <mxCell id="ig5wSbgK44ufMwJsr3-6-54" value="" style="endArrow=classic;html=1;entryX=-0.3;entryY=0.356;entryDx=0;entryDy=0;entryPerimeter=0;" parent="1" target="ig5wSbgK44ufMwJsr3-6-46" edge="1">
          <mxGeometry width="50" height="50" relative="1" as="geometry">
            <mxPoint x="443" y="1159" as="sourcePoint" />
            <mxPoint x="740" y="1159" as="targetPoint" />
          </mxGeometry>
        </mxCell>
        <mxCell id="ig5wSbgK44ufMwJsr3-6-55" value="dealHandler（）" style="text;html=1;align=center;verticalAlign=middle;resizable=0;points=[];autosize=1;" parent="1" vertex="1">
          <mxGeometry x="553" y="1140" width="100" height="20" as="geometry" />
        </mxCell>
        <mxCell id="ig5wSbgK44ufMwJsr3-6-56" value="" style="endArrow=classic;html=1;exitX=0.8;exitY=0.052;exitDx=0;exitDy=0;exitPerimeter=0;entryX=-0.1;entryY=0.189;entryDx=0;entryDy=0;entryPerimeter=0;" parent="1" edge="1">
          <mxGeometry width="50" height="50" relative="1" as="geometry">
            <mxPoint x="440" y="1027.96" as="sourcePoint" />
            <mxPoint x="739" y="1027.97" as="targetPoint" />
          </mxGeometry>
        </mxCell>
        <mxCell id="ig5wSbgK44ufMwJsr3-6-57" value="getConsumer（）" style="text;html=1;align=center;verticalAlign=middle;resizable=0;points=[];autosize=1;" parent="1" vertex="1">
          <mxGeometry x="535" y="1000" width="110" height="20" as="geometry" />
        </mxCell>
        <mxCell id="ig5wSbgK44ufMwJsr3-6-62" value="" style="endArrow=classic;html=1;dashed=1;exitX=0;exitY=0.25;exitDx=0;exitDy=0;entryX=1;entryY=0.25;entryDx=0;entryDy=0;" parent="1" source="ig5wSbgK44ufMwJsr3-6-44" target="ig5wSbgK44ufMwJsr3-6-42" edge="1">
          <mxGeometry width="50" height="50" relative="1" as="geometry">
            <mxPoint x="770" y="1240" as="sourcePoint" />
            <mxPoint x="820" y="1190" as="targetPoint" />
          </mxGeometry>
        </mxCell>
        <mxCell id="ig5wSbgK44ufMwJsr3-6-63" value="consumer（）" style="text;html=1;align=center;verticalAlign=middle;resizable=0;points=[];autosize=1;" parent="1" vertex="1">
          <mxGeometry x="555" y="1060" width="90" height="20" as="geometry" />
        </mxCell>
        <mxCell id="ig5wSbgK44ufMwJsr3-6-64" value="" style="endArrow=classic;html=1;exitX=1.1;exitY=0.463;exitDx=0;exitDy=0;exitPerimeter=0;entryX=-0.2;entryY=0.463;entryDx=0;entryDy=0;entryPerimeter=0;" parent="1" source="ig5wSbgK44ufMwJsr3-6-46" target="ig5wSbgK44ufMwJsr3-6-48" edge="1">
          <mxGeometry width="50" height="50" relative="1" as="geometry">
            <mxPoint x="770" y="1240" as="sourcePoint" />
            <mxPoint x="820" y="1190" as="targetPoint" />
          </mxGeometry>
        </mxCell>
        <mxCell id="ig5wSbgK44ufMwJsr3-6-65" value="batchOperateUploadList" style="text;html=1;align=center;verticalAlign=middle;resizable=0;points=[];autosize=1;" parent="1" vertex="1">
          <mxGeometry x="1260" y="1210" width="140" height="20" as="geometry" />
        </mxCell>
        <mxCell id="ig5wSbgK44ufMwJsr3-6-66" value="" style="endArrow=classic;html=1;exitX=1.4;exitY=0.575;exitDx=0;exitDy=0;exitPerimeter=0;entryX=-0.2;entryY=0.573;entryDx=0;entryDy=0;entryPerimeter=0;" parent="1" source="ig5wSbgK44ufMwJsr3-6-46" target="ig5wSbgK44ufMwJsr3-6-48" edge="1">
          <mxGeometry width="50" height="50" relative="1" as="geometry">
            <mxPoint x="900" y="1370" as="sourcePoint" />
            <mxPoint x="950" y="1320" as="targetPoint" />
          </mxGeometry>
        </mxCell>
        <mxCell id="ig5wSbgK44ufMwJsr3-6-67" value="updateStatusByNumber()" style="text;html=1;align=center;verticalAlign=middle;resizable=0;points=[];autosize=1;" parent="1" vertex="1">
          <mxGeometry x="1250" y="1290" width="150" height="20" as="geometry" />
        </mxCell>
        <mxCell id="ig5wSbgK44ufMwJsr3-6-68" value="OSS" style="rounded=0;whiteSpace=wrap;html=1;" parent="1" vertex="1">
          <mxGeometry x="905" y="870" width="140" height="30" as="geometry" />
        </mxCell>
        <mxCell id="ig5wSbgK44ufMwJsr3-6-69" value="" style="rounded=0;whiteSpace=wrap;html=1;" parent="1" vertex="1">
          <mxGeometry x="970" y="900" width="10" height="730" as="geometry" />
        </mxCell>
        <mxCell id="ig5wSbgK44ufMwJsr3-6-70" value="" style="endArrow=classic;html=1;exitX=1.1;exitY=0.178;exitDx=0;exitDy=0;exitPerimeter=0;entryX=-0.3;entryY=0.177;entryDx=0;entryDy=0;entryPerimeter=0;" parent="1" source="ig5wSbgK44ufMwJsr3-6-44" target="ig5wSbgK44ufMwJsr3-6-69" edge="1">
          <mxGeometry width="50" height="50" relative="1" as="geometry">
            <mxPoint x="770" y="1210" as="sourcePoint" />
            <mxPoint x="820" y="1160" as="targetPoint" />
          </mxGeometry>
        </mxCell>
        <mxCell id="ig5wSbgK44ufMwJsr3-6-71" value="downLoadFileById()" style="text;html=1;align=center;verticalAlign=middle;resizable=0;points=[];autosize=1;" parent="1" vertex="1">
          <mxGeometry x="810" y="1010" width="120" height="20" as="geometry" />
        </mxCell>
        <mxCell id="ig5wSbgK44ufMwJsr3-6-72" value="" style="endArrow=classic;html=1;exitX=0;exitY=0.25;exitDx=0;exitDy=0;entryX=1;entryY=0.25;entryDx=0;entryDy=0;dashed=1;" parent="1" source="ig5wSbgK44ufMwJsr3-6-69" target="ig5wSbgK44ufMwJsr3-6-44" edge="1">
          <mxGeometry width="50" height="50" relative="1" as="geometry">
            <mxPoint x="860" y="1150" as="sourcePoint" />
            <mxPoint x="910" y="1100" as="targetPoint" />
          </mxGeometry>
        </mxCell>
        <mxCell id="ig5wSbgK44ufMwJsr3-6-73" value="file" style="text;html=1;align=center;verticalAlign=middle;resizable=0;points=[];autosize=1;" parent="1" vertex="1">
          <mxGeometry x="850" y="1060" width="30" height="20" as="geometry" />
        </mxCell>
      </root>
    </mxGraphModel>
  </diagram>
</mxfile>
